<svg xmlns="http://www.w3.org/2000/svg" viewBox="0 0 714.07 191.31">
  <defs>
    <style>
      .cls-1 {
        font-size: 31.94px;
        font-family: Lato-Semibold, Lato;
        font-weight: 600;
      }

      .cls-1, .cls-7 {
        fill: #fff;
      }

      .cls-2 {
        letter-spacing: -0.01em;
      }

      .cls-3 {
        letter-spacing: 0em;
      }

      .cls-4 {
        letter-spacing: -0.01em;
      }

      .cls-5 {
        letter-spacing: -0.01em;
      }

      .cls-6 {
        letter-spacing: -0.01em;
      }

      .cls-8 {
        fill: #e8cf33;
      }
    </style>
  </defs>
  <title>logo_crunar_white</title>
  <g id="Capa_2" data-name="Capa 2">
    <g id="Capa_1-2" data-name="Capa 1">
      <g>
        <g>
          <text class="cls-1" transform="translate(217.47 181.88)">A<tspan class="cls-2" x="21.92" y="0">g</tspan><tspan class="cls-3" x="38.4" y="0">encia de </tspan><tspan class="cls-4" x="163.43" y="0">D</tspan><tspan x="187.43" y="0">iseño </tspan><tspan class="cls-5" x="270.33" y="0">Gr</tspan><tspan class="cls-6" x="304.89" y="0">á</tspan><tspan x="320.67" y="0">fi</tspan><tspan class="cls-4" x="339.43" y="0">c</tspan><tspan x="354.47" y="0">o</tspan></text>
          <g>
            <path class="cls-7" d="M111,38a24.21,24.21,0,0,1-3.66,3.7,8.17,8.17,0,0,1-5,1.38,10.75,10.75,0,0,1-5.66-1.48L91,38.33A42.73,42.73,0,0,0,83.63,35a31.82,31.82,0,0,0-10.5-1.45,29.28,29.28,0,0,0-13.41,2.92,24.87,24.87,0,0,0-9.3,8.21,37.52,37.52,0,0,0-5.39,13,77.53,77.53,0,0,0-1.7,17.38q.09,20.31,8,31.17t21.64,10.81q7.36,0,11.65-1.88a35.81,35.81,0,0,0,7.27-4.12l5.5-4.18a10.17,10.17,0,0,1,6.33-1.94,8.74,8.74,0,0,1,7.64,3.65l12.33,15.07A66.83,66.83,0,0,1,109.94,136a69.63,69.63,0,0,1-14.75,7.42A77.18,77.18,0,0,1,80,147.11a112.29,112.29,0,0,1-14.85,1.08,63.6,63.6,0,0,1-24.75-4.8,60.63,60.63,0,0,1-20.77-14.15,68.21,68.21,0,0,1-14.26-22.9Q.07,92.73,0,75.29A87.22,87.22,0,0,1,4.45,46.73,64.73,64.73,0,0,1,17.84,23.65a62.68,62.68,0,0,1,22-15.42Q53,2.59,70.28,2.51q16.62-.06,29.18,5.2a69.89,69.89,0,0,1,22.68,15.43Z"/>
            <path class="cls-7" d="M179.24,26q6.49-11.47,15-18a31.26,31.26,0,0,1,19.53-6.62q9.52,0,15.55,4.43l-2.6,31.08a6.51,6.51,0,0,1-2.23,4.1,7.35,7.35,0,0,1-4.28,1.1c-.73,0-1.69,0-2.87-.12s-2.41-.2-3.68-.33l-3.88-.39c-1.32-.13-2.52-.19-3.61-.19q-9.27,0-14.77,5a38.62,38.62,0,0,0-9.27,13.66l.27,65.55-42.24.18-.5-121,25.07-.1a21.77,21.77,0,0,1,5.25.52,9.3,9.3,0,0,1,3.55,1.69,7.39,7.39,0,0,1,2.19,3.06A28,28,0,0,1,177,14.2Z"/>
            <path class="cls-7" d="M111,38a24.21,24.21,0,0,1-3.66,3.7,8.17,8.17,0,0,1-5,1.38,10.75,10.75,0,0,1-5.66-1.48L91,38.33A42.73,42.73,0,0,0,83.63,35a31.82,31.82,0,0,0-10.5-1.45,29.28,29.28,0,0,0-13.41,2.92,24.87,24.87,0,0,0-9.3,8.21,37.52,37.52,0,0,0-5.39,13,77.53,77.53,0,0,0-1.7,17.38q.09,20.31,8,31.17t21.64,10.81q7.36,0,11.65-1.88a35.81,35.81,0,0,0,7.27-4.12l5.5-4.18a10.17,10.17,0,0,1,6.33-1.94,8.74,8.74,0,0,1,7.64,3.65l12.33,15.07A66.83,66.83,0,0,1,109.94,136a69.63,69.63,0,0,1-14.75,7.42A77.18,77.18,0,0,1,80,147.11a112.29,112.29,0,0,1-14.85,1.08,63.6,63.6,0,0,1-24.75-4.8,60.63,60.63,0,0,1-20.77-14.15,68.21,68.21,0,0,1-14.26-22.9Q.07,92.73,0,75.29A87.22,87.22,0,0,1,4.45,46.73,64.73,64.73,0,0,1,17.84,23.65a62.68,62.68,0,0,1,22-15.42Q53,2.59,70.28,2.51q16.62-.06,29.18,5.2a69.89,69.89,0,0,1,22.68,15.43Z"/>
            <path class="cls-7" d="M179.24,26q6.49-11.47,15-18a31.26,31.26,0,0,1,19.53-6.62q9.52,0,15.55,4.43l-2.6,31.08a6.51,6.51,0,0,1-2.23,4.1,7.35,7.35,0,0,1-4.28,1.1c-.73,0-1.69,0-2.87-.12s-2.41-.2-3.68-.33l-3.88-.39c-1.32-.13-2.52-.19-3.61-.19q-9.27,0-14.77,5a38.62,38.62,0,0,0-9.27,13.66l.27,65.55-42.24.18-.5-121,25.07-.1a21.77,21.77,0,0,1,5.25.52,9.3,9.3,0,0,1,3.55,1.69,7.39,7.39,0,0,1,2.19,3.06A28,28,0,0,1,177,14.2Z"/>
            <path class="cls-7" d="M370.39,22.76l.51,122-26.16.11q-7.9,0-10.39-7l-2.48-8.16a82.16,82.16,0,0,1-8.42,7.18,51.41,51.41,0,0,1-9.31,5.49,54.93,54.93,0,0,1-10.75,3.59,57.81,57.81,0,0,1-12.6,1.35,49.41,49.41,0,0,1-20.52-3.94,42.13,42.13,0,0,1-15.1-11.17,49.12,49.12,0,0,1-9.34-17,70.23,70.23,0,0,1-3.22-21.51L242.23,4l42.24-.17.38,89.65q0,10.5,4.83,16.2t14.06,5.66a29.55,29.55,0,0,0,13-3,52.65,52.65,0,0,0,11.75-8L328.07,3.63l25.05-.11Z"/>
            <path class="cls-7" d="M367.1,18.72a100.09,100.09,0,0,1,8.42-7.12A48.68,48.68,0,0,1,384.83,6a55.6,55.6,0,0,1,10.75-3.59A57.65,57.65,0,0,1,408.17,1.1,49.42,49.42,0,0,1,428.7,5a42.54,42.54,0,0,1,15.1,11.11,48.19,48.19,0,0,1,9.34,17,70.81,70.81,0,0,1,3.22,21.45l.37,89.79-42.23.17-.38-89.79q0-10.35-4.83-16.12t-14.06-5.73a29.35,29.35,0,0,0-13,3,52.09,52.09,0,0,0-11.75,8l.42,100.83-22.91.09-19.42-19.56-.5-121.65,26.16-.11q7.9,0,10.38,7Z"/>
            <path class="cls-7" d="M480.34,22.6A85.91,85.91,0,0,1,508.68,5.66,99.61,99.61,0,0,1,542.11,0a61.34,61.34,0,0,1,23.11,4.06,49.69,49.69,0,0,1,17.49,11.51,50.59,50.59,0,0,1,11,17.6,63.57,63.57,0,0,1,3.91,22.33l.37,88.29-19.35.08c-4,0-7-.52-9.07-1.6s-3.76-3.34-5.14-6.79l-3-7.75q-5.3,4.52-10.18,7.94a64.86,64.86,0,0,1-10.13,5.84A49.86,49.86,0,0,1,530,145.09a68.62,68.62,0,0,1-13.14,1.22,57.81,57.81,0,0,1-17.59-2.45,36.7,36.7,0,0,1-13.45-7.37,32.68,32.68,0,0,1-8.57-12.16,44,44,0,0,1-3.07-16.81A35,35,0,0,1,477.91,92q3.78-7.86,13.15-14.37t25.3-10.93q15.93-4.42,40.17-5.08l0-6q-.06-12.4-5.19-17.9t-14.53-5.46A38.76,38.76,0,0,0,524.54,34,54.37,54.37,0,0,0,516,37.72c-2.49,1.37-4.91,2.61-7.27,3.7a20.12,20.12,0,0,1-8.44,1.68A12.24,12.24,0,0,1,493,41,19,19,0,0,1,488,35.79Zm76.3,63.86a140.79,140.79,0,0,0-20.84,2.27,50.41,50.41,0,0,0-12.93,4.14q-4.75,2.47-6.58,5.61a13.22,13.22,0,0,0-1.81,6.82q0,7.23,4,10.14t11.59,2.88a33.57,33.57,0,0,0,14.3-2.92,43.62,43.62,0,0,0,12.36-9.32Z"/>
            <path class="cls-7" d="M664,26q6.48-11.48,15-18a31.15,31.15,0,0,1,19.52-6.62q9.54,0,15.55,4.43l-2.59,31.07a6.53,6.53,0,0,1-2.23,4.1A7.48,7.48,0,0,1,705,42c-.73,0-1.68,0-2.86-.13s-2.41-.19-3.68-.32l-3.89-.39a34,34,0,0,0-3.61-.19q-9.27,0-14.76,5a38.64,38.64,0,0,0-9.28,13.67l.27,65.55-42.24.18-.5-121,25.07-.1a21.22,21.22,0,0,1,5.25.52,9.23,9.23,0,0,1,3.55,1.69,7.18,7.18,0,0,1,2.19,3.05,27.56,27.56,0,0,1,1.31,4.63Z"/>
          </g>
        </g>
        <rect class="cls-8" x="140.19" y="148.86" width="42.44" height="42.44"/>
        <rect class="cls-8" x="624.96" y="148.86" width="42.44" height="42.44"/>
      </g>
    </g>
  </g>
</svg>
