<svg xmlns="http://www.w3.org/2000/svg" viewBox="0 0 40.52 81"><defs><style>.cls-1{fill:#7c44cc;}.cls-1,.cls-2{opacity:0.7;}.cls-3{fill:#fff;}</style></defs><g id="Capa_2" data-name="Capa 2"><g id="Slide_1" data-name="Slide 1"><g id="Ventanas"><path class="cls-1" d="M18.71,4C8,12.71,0,33,0,49.94,0,56.69,1.28,62.21,3.49,66L7.54,81l2.68-9.35c2.52.64,5.39.19,8.49-1.55C30.32,63.56,40.52,41.8,40.52,22S30.32-5.44,18.71,4Z"/><g class="cls-2"><polygon class="cls-3" points="6.32 37.36 32.05 18.39 32.05 14.79 6.32 34.09 6.32 37.36"/><polygon class="cls-3" points="6.32 44.41 32.05 25.44 32.05 21.83 6.32 41.14 6.32 44.41"/><polygon class="cls-3" points="6.32 51.45 32.05 32.48 32.05 28.88 6.32 48.18 6.32 51.45"/><polygon class="cls-3" points="6.32 57.41 24.01 44.37 24.01 41.89 6.32 55.16 6.32 57.41"/></g></g></g></g></svg>