<svg xmlns="http://www.w3.org/2000/svg" xmlns:xlink="http://www.w3.org/1999/xlink" viewBox="0 0 133.21 103.62"><defs><style>.cls-1{fill:none;}.cls-2,.cls-6{fill:#6548c1;}.cls-2{opacity:0.7;}.cls-3{opacity:0.3;}.cls-4{fill:#fff;}.cls-5{clip-path:url(#clip-path);}</style><clipPath id="clip-path"><path class="cls-1" d="M119.36,41c0,18-10.91,31.36-23.27,30-11.3-1.26-19.76-14.57-19.76-29.84s8.46-28.65,19.76-30C108.45,9.74,119.36,23,119.36,41Z"/></clipPath></defs><g id="Capa_2" data-name="Capa 2"><g id="Slide_1" data-name="Slide 1"><g id="Ventanas"><polygon class="cls-2" points="133.21 92.74 0 66.33 0 9.77 133.21 0 133.21 92.74"/><g class="cls-3"><path class="cls-4" d="M119.36,41c0,18-10.91,31.36-23.27,30-11.3-1.26-19.76-14.57-19.76-29.84s8.46-28.65,19.76-30C108.45,9.74,119.36,23,119.36,41Z"/><polygon class="cls-4" points="74.8 73.94 115.12 80.75 115.12 77.52 74.8 71.11 74.8 73.94"/><polygon class="cls-4" points="7.68 23.07 65.25 22.87 65.25 17.09 7.68 18.51 7.68 23.07"/><polygon class="cls-4" points="29.6 29.51 65.25 30.18 65.25 27.71 29.6 27.37 29.6 29.51"/><path class="cls-4" d="M62.25,45.36c0,1.3.66,2.41,1.49,2.48s1.51-1,1.51-2.26-.68-2.43-1.51-2.48S62.25,44.06,62.25,45.36Z"/><path class="cls-4" d="M62.25,53.39c0,1.3.66,2.41,1.49,2.48s1.51-.94,1.51-2.26-.68-2.43-1.51-2.48S62.25,52.09,62.25,53.39Z"/><path class="cls-4" d="M62.25,61.42c0,1.3.66,2.41,1.49,2.48s1.51-.94,1.51-2.26-.68-2.43-1.51-2.48S62.25,60.12,62.25,61.42Z"/><polygon class="cls-4" points="35.32 44.79 58.77 45.97 58.77 44.12 35.32 43.13 35.32 44.79"/><polygon class="cls-4" points="39.2 51.89 58.77 53.47 58.77 51.89 39.2 50.45 39.2 51.89"/><polygon class="cls-4" points="39.2 59.26 58.77 61.53 58.77 60.09 39.2 57.95 39.2 59.26"/><g class="cls-5"><path class="cls-2" d="M103.3,28.66c0,5.66-3.28,10.2-7.23,10.13s-6.9-4.49-6.9-9.9,3-9.94,6.9-10.13S103.3,23,103.3,28.66Z"/><path class="cls-6" d="M119.36,74.32c0,18.52-11,31.43-23.69,29C84,101.1,75.17,86.43,75.17,70.4S84,41.27,95.67,41.1C108.31,40.93,119.36,55.79,119.36,74.32Z"/></g></g></g></g></g></svg>