<svg xmlns="http://www.w3.org/2000/svg" viewBox="0 0 32.17 59.66"><defs><style>.cls-1{fill:#ce4253;opacity:0.53;}.cls-2{fill:#fff;opacity:0.75;}</style></defs><g id="Capa_2" data-name="Capa 2"><g id="Slide_1" data-name="Slide 1"><g id="Ventanas"><path class="cls-1" d="M26,.87,1.39,21.08A3.83,3.83,0,0,0,0,24V55.85a3.79,3.79,0,0,0,5.82,3.22L30.4,43.53a3.81,3.81,0,0,0,1.77-3.22V3.81A3.79,3.79,0,0,0,26,.87Z"/><path class="cls-2" d="M25.24,23.82l0,0h0a12.51,12.51,0,0,0,1.06-4.71c0-4.21-3-5.67-6.69-3.31a15,15,0,0,0-4.93,5.82,4.75,4.75,0,0,0-4.13.9,14.66,14.66,0,0,0-6,11,5.13,5.13,0,0,0,.9,3.17l0,0L15,43.36a1.8,1.8,0,0,0,2.8-.34"/></g></g></g></svg>