<svg xmlns="http://www.w3.org/2000/svg" viewBox="0 0 73.22 232.68"><defs><style>.cls-1{fill:#3582d8;opacity:0.7;}.cls-2{fill:#d8d8d8;opacity:0.4;}</style></defs><g id="Capa_2" data-name="Capa 2"><g id="Slide_1" data-name="Slide 1"><g id="Ventanas"><polygon class="cls-1" points="73.22 232.69 0 213.89 0 17.28 73.22 0 73.22 232.69"/><polygon class="cls-2" points="62.26 61.9 7.96 68.84 7.96 33.94 62.26 22.37 62.26 61.9"/><polygon class="cls-2" points="7.96 109.61 62.26 108.07 62.26 71.23 7.96 77.08 7.96 109.61"/><polygon class="cls-2" points="62.26 154.24 7.96 150.37 7.96 119.76 62.26 119.57 62.26 154.24"/><polygon class="cls-2" points="7.96 191.22 62.26 200.5 62.26 163.22 7.96 158.3 7.96 191.22"/><polygon class="cls-2" points="23.03 19.02 8.39 22.23 8.39 24.71 23.03 21.59 23.03 19.02"/><polygon class="cls-2" points="37.57 18.5 25.41 21.09 25.41 18.5 37.57 15.83 37.57 18.5"/><polygon class="cls-2" points="55.03 12.27 40.4 15.48 40.4 18.18 55.03 15.06 55.03 12.27"/><path class="cls-2" d="M62,12.18a3,3,0,0,1-2.33,2.67,1.76,1.76,0,0,1-2.31-1.68,3,3,0,0,1,2.31-2.67A1.77,1.77,0,0,1,62,12.18Z"/><polygon class="cls-2" points="7.96 210.3 62.26 223.49 62.26 213.07 7.96 201.11 7.96 210.3"/></g></g></g></svg>