<svg xmlns="http://www.w3.org/2000/svg" viewBox="0 0 198.43 315.11"><defs><style>.cls-1{fill:#4f78e0;}.cls-1,.cls-2{opacity:0.7;}.cls-2,.cls-3{fill:#89beef;}</style></defs><g id="Capa_2" data-name="Capa 2"><g id="Slide_1" data-name="Slide 1"><g id="Ventanas"><polygon class="cls-1" points="198.43 299.09 0 315.11 0 132.03 198.43 0 198.43 299.09"/><polygon class="cls-2" points="82.92 200.47 13.36 231.47 13.36 185.69 82.92 144.93 82.92 200.47"/><polygon class="cls-2" points="178.98 158.57 94.18 196.15 94.18 139.92 178.98 90.84 178.98 158.57"/><polygon class="cls-2" points="178.98 61.36 13.36 155.27 13.36 143.13 178.98 43.06 178.98 61.36"/><path class="cls-3" d="M147.47,71c0,2.94,2.57,3.85,5.78,2s5.93-5.84,5.93-8.86-2.68-3.87-5.93-1.93S147.47,68,147.47,71Z"/><polygon class="cls-2" points="178.98 255.75 13.36 284.24 13.36 248.03 178.98 176.21 178.98 255.75"/></g></g></g></svg>