<svg xmlns="http://www.w3.org/2000/svg" viewBox="0 0 75.26 33.45">
  <defs>
    <style>
      .cls-1 {
        fill: #fff;
      }
    </style>
  </defs>
  <title>arrow5</title>
  <g id="Capa_2" data-name="Capa 2">
    <g id="Capa_1-2" data-name="Capa 1">
      <path class="cls-1" d="M56.57.13a1.27,1.27,0,0,0-.82,1.27v9.75H1.39a1.36,1.36,0,0,0-1,.39,1.37,1.37,0,0,0-.39,1v8.36a1.36,1.36,0,0,0,.39,1,1.36,1.36,0,0,0,1,.39H55.75v9.76a1.3,1.3,0,0,0,.83,1.26,1.39,1.39,0,0,0,1.52-.22L74.82,17.64a1.43,1.43,0,0,0,.44-1,1.4,1.4,0,0,0-.44-1L58.1.35A1.41,1.41,0,0,0,56.57.13Z"/>
    </g>
  </g>
</svg>
