<?xml version="1.0" encoding="utf-8"?>
<!-- Generator: Adobe Illustrator 24.0.0, SVG Export Plug-In . SVG Version: 6.00 Build 0)  -->
<svg version="1.1" id="Capa_1" xmlns="http://www.w3.org/2000/svg" xmlns:xlink="http://www.w3.org/1999/xlink" x="0px" y="0px"
	 viewBox="0 0 59.5 54.5" style="enable-background:new 0 0 59.5 54.5;" xml:space="preserve">
<style type="text/css">
	.st0{fill:#FFFFFF;}
</style>
<title>arrow2</title>
<g id="Capa_2_1_">
	<g id="Capa_1-2">
		<path class="st0" d="M34.3,53.7c-0.3-0.5-0.2-1.1,0.2-1.5l6.5-7.3L0.5,8.7c-0.6-0.5-0.7-1.3-0.2-1.9c0,0,0.1-0.1,0.1-0.1L6,0.5
			C6.2,0.2,6.6,0,7,0c0.4,0,0.7,0.1,1,0.4l40.5,36.2l6.5-7.3c0.4-0.4,0.9-0.6,1.5-0.3c0.5,0.1,0.9,0.6,1,1.2l2.1,22.6
			c0,0.4-0.1,0.8-0.4,1.1c-0.3,0.3-0.6,0.4-1,0.5l-22.6,0.2C35,54.5,34.5,54.2,34.3,53.7z"/>
	</g>
</g>
</svg>
