<svg xmlns="http://www.w3.org/2000/svg" viewBox="0 0 61.97 52.88">
  <defs>
    <style>
      .cls-1 {
        fill: #fff;
      }
    </style>
  </defs>
  <title>arrow3</title>
  <g id="Capa_2" data-name="Capa 2">
    <g id="Capa_1-2" data-name="Capa 1">
      <path class="cls-1" d="M36.77.78a1.27,1.27,0,0,0,.14,1.51L43,9.91.55,43.84a1.37,1.37,0,0,0-.54.94,1.32,1.32,0,0,0,.32,1l5.22,6.54a1.35,1.35,0,0,0,2,.21L50,18.62l6.1,7.62a1.31,1.31,0,0,0,1.43.47,1.42,1.42,0,0,0,1.06-1.13L62,3.06A1.41,1.41,0,0,0,61.64,2a1.38,1.38,0,0,0-1-.52L38.1,0A1.41,1.41,0,0,0,36.77.78Z"/>
    </g>
  </g>
</svg>
