<svg xmlns="http://www.w3.org/2000/svg" viewBox="0 0 59.54 54.55">
  <defs>
    <style>
      .cls-1 {
        fill: #fff;
      }
    </style>
  </defs>
  <title>arrow2</title>
  <g id="Capa_2" data-name="Capa 2">
    <g id="Capa_1-2" data-name="Capa 1">
      <path class="cls-1" d="M25.28,53.69a1.26,1.26,0,0,0-.23-1.49l-6.5-7.27L59.06,8.69a1.36,1.36,0,0,0,.11-2L53.59.49a1.33,1.33,0,0,0-1-.49,1.38,1.38,0,0,0-1,.38L11.11,36.62l-6.5-7.27A1.3,1.3,0,0,0,3.15,29a1.37,1.37,0,0,0-1,1.18L0,52.81a1.4,1.4,0,0,0,.38,1.07,1.4,1.4,0,0,0,1,.46L24,54.55A1.42,1.42,0,0,0,25.28,53.69Z"/>
    </g>
  </g>
</svg>
