<svg xmlns="http://www.w3.org/2000/svg" viewBox="0 0 400.67 512">
  <defs>
    <style>
      .cls-1 {
        fill: #76bc21;
      }

      .cls-2 {
        <!-- fill: #0d2645; -->
        fill: #ffffff;
      }
    </style>
  </defs>
  <title>at_icon2</title>
  <g id="Capa_2" data-name="Capa 2">
    <g id="OBJECTS">
      <path class="cls-1" d="M171.27,400c-20,18.44-47.57,22.57-72.06,10.78A65.62,65.62,0,0,1,77,393.54L43.7,467.28a6.42,6.42,0,0,0,7.56,8.82l24.27-6.76a30.92,30.92,0,0,1,36.17,16.35l11,22.69a6.42,6.42,0,0,0,11.62-.15l53-117.3A39.65,39.65,0,0,0,171.27,400Z"/>
      <path class="cls-1" d="M357,467.28l-33.34-73.75a65.33,65.33,0,0,1-22.17,17.2c-24.48,11.79-52.09,7.66-72-10.78a39.78,39.78,0,0,0-16-9l53,117.3a6.41,6.41,0,0,0,11.61.15l11-22.69a30.92,30.92,0,0,1,36.17-16.35l24.27,6.76a6.41,6.41,0,0,0,7.56-8.82Z"/>
      <path class="cls-1" d="M383.15,207.79a65.08,65.08,0,0,1-19.56-85.7c10.06-17.49,4.82-34.78-3.42-45.12s-23.94-19.28-43.23-13.38a65.08,65.08,0,0,1-79.2-38.14C230.34,6.69,213.56,0,200.33,0s-30,6.69-37.41,25.45a65.08,65.08,0,0,1-79.2,38.14c-19.29-5.9-35,3-43.22,13.38S27,104.6,37.07,122.09a65.08,65.08,0,0,1-19.56,85.7C.87,219.19-1.92,237,1,249.93s13.2,27.76,33.14,30.81A65.08,65.08,0,0,1,89,349.46c-1.47,20.12,10.74,33.43,22.66,39.17s29.93,7,44.75-6.7a65.06,65.06,0,0,1,87.9,0c14.82,13.69,32.84,12.44,44.75,6.7s24.13-19.05,22.67-39.17a65.07,65.07,0,0,1,54.81-68.72c19.94-3.05,30.19-17.92,33.13-30.81S399.8,219.19,383.15,207.79ZM200.33,335.92c-72.57,0-131.62-59-131.62-131.62S127.76,72.68,200.33,72.68,332,131.73,332,204.3A131.76,131.76,0,0,1,200.33,335.92Z"/>
      <path class="cls-2" d="M200.33,97.22A107.08,107.08,0,1,0,307.41,204.3,107.21,107.21,0,0,0,200.33,97.22Zm54.88,96.7L188.57,242.6a12.33,12.33,0,0,1-7.24,2.36,12.35,12.35,0,0,1-10-5.22l-19.94-28.38a12.27,12.27,0,0,1,20.09-14.11l12.75,18.16,56.54-41.31a12.27,12.27,0,0,1,14.48,19.82Z"/>
    </g>
  </g>
</svg>
