<svg xmlns="http://www.w3.org/2000/svg" viewBox="0 0 384.21 469.33">
  <defs>
    <style>
      .cls-1 {
        fill: #76bc21;
      }
      .cls-2 {
        <!-- fill: #0d2645; -->
        fill: #ffffff;
      }
    </style>
  </defs>
  <title>at_icon</title>
  <g id="Capa_2" data-name="Capa 2">
    <g id="OBJECTS">
      <path class="cls-1" d="M192,128a42.68,42.68,0,0,0,36.59-64.64L192,0,155.41,63.36A42.68,42.68,0,0,0,192,128Z"/>
      <path class="cls-2" d="M320,192H213.33V149.33H170.67V192H64A64,64,0,0,0,0,256v32.85A41.78,41.78,0,0,0,71.36,318.4L117,272.85l45.55,45.44c15.79,15.79,43.31,15.79,59.09,0l45.66-45.44,45.54,45.44a41.78,41.78,0,0,0,71.36-29.54V256A64.36,64.36,0,0,0,320,192Z"/>
      <path class="cls-1" d="M290,341h0l-22.94-22.93-23,22.93c-27.84,27.84-76.48,27.84-104.32,0L116.8,318.08,93.76,341a72.3,72.3,0,0,1-51.95,21.66A73.7,73.7,0,0,1,0,349.55V448a21.39,21.39,0,0,0,21.33,21.33H362.67A21.39,21.39,0,0,0,384,448V349.55A73.44,73.44,0,0,1,290,341Z"/>
    </g>
  </g>
</svg>
