<svg xmlns="http://www.w3.org/2000/svg" viewBox="0 0 1177.7 707.76">
  <defs>
    <style>
      .cls-1 {
        fill: #ffffff;
      }
      .circles {
        transform-origin: center;
        animation: light 2.5s cubic-bezier(0, 0, 1, 1.01) infinite;
      }
      .circles.a2 {
        animation-delay: 0.6s;
      }
      .circles.a3 {
        animation-delay: 1.2s;
      }
      @keyframes light {
        0% {
          opacity: 1;
        }
        50% {
          opacity: 0.2;
        }
        100% {
          opacity: 1;
        }
      } 
    </style>
  </defs>
  <title>contact</title>
  <g id="Capa_2" data-name="Capa 2">
    <g id="Capa_1-2" data-name="Capa 1">
      <g>
        <path class="cls-1" d="M645.23,706.72c-29.22,1.81-58.47.71-87.69.69-13.63,0-27.26-1.16-40.89-1.79-3.66-.17-7.32-.42-11-.51-9-.21-17.94-.9-26.87-1.9a19,19,0,0,0-2-.13c-7.65,0-15.2-1.16-22.8-1.78-5-.41-9.92-.93-14.89-1.3-5.29-.38-10.58-1-15.86-1.65-7.49-.9-15-1.71-22.45-2.91-8.53-1.36-17.13-2.23-25.61-3.9-5.29-1-10.69-1.5-16-2.56s-10.62-1.52-15.89-2.63c-4.28-.91-8.67-1.39-13-2.33-6.31-1.38-12.56-3-18.91-4.16-7.28-1.29-14.4-3.22-21.57-4.91q-11.64-2.75-23.2-5.81c-10.12-2.66-20.25-5.28-30.29-8.23-9.31-2.73-18.5-5.9-27.76-8.84-11.89-3.78-23.47-8.43-35.15-12.78-8.95-3.33-17.63-7.45-26.32-11.45s-17.09-7.87-25.38-12.3c-10.27-5.49-20.54-11-30.25-17.51-5.12-3.41-10.42-6.57-15.56-9.95-7.45-4.92-14.18-10.74-20.93-16.55A270,270,0,0,1,34.75,552c-5.19-5.51-9.61-11.7-14-17.86A120.34,120.34,0,0,1,6.47,507.84c-2-5.08-3-10.51-4.37-15.79A74.22,74.22,0,0,1,0,473.78,100.39,100.39,0,0,1,2.2,451.51a104.79,104.79,0,0,1,9.85-27.35,151.89,151.89,0,0,1,15.53-23.77c8.64-10.88,18.79-20.22,29-29.55,4.58-4.2,10-7.52,14.89-11.35A272.91,272.91,0,0,1,94.24,343.8c7.33-4.57,15-8.58,22.69-12.6,7.89-4.14,15.84-8.18,23.9-12q24.43-11.43,49.75-20.76c14.34-5.28,29.09-9.46,43.6-14.29,8.12-2.7,16.4-4.86,24.58-7.36,4-1.23,8.13-2.29,12.25-3.22a3.73,3.73,0,0,0,3.25-3.56c.75-7.8,2.74-15.35,4.37-23a259.28,259.28,0,0,1,8.7-30.65c4.29-12.33,8.72-24.64,14.71-36.27,5.64-11,11.59-21.73,18.08-32.22a302.41,302.41,0,0,1,26.57-36.2,284.44,284.44,0,0,1,23.75-24.62A369.89,369.89,0,0,1,406.5,57.49a282.77,282.77,0,0,1,40.61-24,321.36,321.36,0,0,1,39.08-16.34C495.57,14,505,11.24,514.65,9A163.62,163.62,0,0,1,533.4,5.4c4.76-.55,9.46-1.67,14.25-2.19,7.61-.83,15.19-1.77,22.84-2.26C577.56.5,584.61-.31,591.68.13c9.55.59,19.11.72,28.64,1.75,4.8.52,9.62,1,14.38,1.7,6.45,1,12.82,2.49,19.25,3.66s12.95,3,19.4,4.59c7.76,2,15.28,4.61,22.86,7.12A282.94,282.94,0,0,1,741.6,39,317.68,317.68,0,0,1,771,57.42a301.37,301.37,0,0,1,25.67,19.83,285,285,0,0,1,30.15,29.84c9.72,11.31,19.42,22.62,27.5,35.18A359.78,359.78,0,0,1,883,196.75c4.77,11.29,8.7,22.85,12.34,34.51,1.6,5.12,2.43,10.48,3.53,15.75,1.33,6.35,3,12.66,3.71,19.08.55,5.37,2.77,7.51,8,8.87,16.08,4.15,32,8.86,47.91,13.75,12.15,3.74,24,8.39,36,12.72,15.19,5.49,30,11.91,44.69,18.56,11.14,5,21.7,11.29,32.39,17.25a389.21,389.21,0,0,1,33.78,21.32c15.31,10.7,28.65,23.65,41,37.5a129.45,129.45,0,0,1,20.41,29.8,110.39,110.39,0,0,1,8.83,25.57,101.44,101.44,0,0,1,2.07,19.78,98.71,98.71,0,0,1-2,20.77c-2.09,10.15-5.94,19.52-10.62,28.64-6.7,13.07-15.55,24.54-25.64,35.15a238.26,238.26,0,0,1-32.3,28.25,350.21,350.21,0,0,1-39.74,25.39c-20.29,11-41.26,20.56-62.53,29.51-16.5,6.94-33.56,12.26-50.57,17.72-9.25,3-18.51,6-27.86,8.61-8.93,2.52-18,4.49-27,6.91-10,2.7-20.21,4.6-30.28,7.06-7.08,1.73-14.33,2.77-21.43,4.44-9,2.11-18.14,3.24-27.17,5.11-5.42,1.12-11,2-16.46,2.77-5.73.84-11.45,1.84-17.17,2.8-2.69.45-5.43.65-8.12.94-6.84.74-13.63,1.91-20.52,2.38-6.05.41-12.05,1.5-18.1,2-8.94.8-17.89,1.59-26.81,2.51-5.45.56-10.93.71-16.37,1.55-5.16.79-10.44.81-15.67,1.18C669.34,705.77,657.28,706.15,645.23,706.72Zm-3.4-60.33c8.46.39,14.92-.4,21.4-.69,15.45-.68,30.87-1.67,46.26-3.13,6.37-.6,12.73-1.37,19.14-1.64A84.46,84.46,0,0,0,739,639.77c6.7-1.14,13.46-1.69,20.18-2.58,6.91-.91,13.9-1.47,20.8-2.46,8.3-1.2,16.58-2.57,24.84-4,6.46-1.13,12.95-2.07,19.36-3.47q5.34-1.17,10.71-2.15c4.47-.81,9-1.33,13.43-2.32,10.28-2.29,20.47-4.91,30.75-7.15q14-3,27.8-7c12.55-3.57,25.19-6.85,37.42-11.49,8.7-3.29,17.64-5.95,26.35-9.19,14.82-5.52,29.33-11.75,43.68-18.44a425.12,425.12,0,0,0,46.92-26,192.78,192.78,0,0,0,33.67-27.3c9.63-9.68,17.47-20.48,21.49-33.76a36.82,36.82,0,0,0,.66-19.44c-3.31-14-11.67-25.18-21.36-35.24-11-11.44-23.92-20.66-37.24-29.25a373.51,373.51,0,0,0-45.66-24.68C995.67,366,978.13,359,960.43,352.4c-8.5-3.16-17.24-5.55-25.81-8.47-8.81-3-17.86-5.15-26.73-7.95-.8-.25-1.55-.39-2,0a1.67,1.67,0,0,0-.44,1.3c0,2.77-5.35,33.51-12.18,46.6-4.57,8.75-11.63,13.13-19.52,18C762.18,471,604.8,472,604.8,472c-225.6,1.35-311.19-73.14-319.27-86.44-11.33-18.67-11-26.66-11-26.66-.89-7.23-2.06-14.48-2.18-21.81,0-1.35-.44-2-2-1.54-6.06,1.81-12.19,3.37-18.19,5.33-13,4.25-26,8.69-39,13.06-17.78,6-34.86,13.68-51.75,21.77Q141.18,385.4,121.91,397c-15.75,9.55-30.19,20.59-42.58,34.27a89.47,89.47,0,0,0-15.61,23,41.81,41.81,0,0,0-3.61,24.09c1.37,8.69,5.31,16.65,10.46,23.81a132.73,132.73,0,0,0,26.31,27.19,306.14,306.14,0,0,0,30.73,21.34A394,394,0,0,0,184.82,579c17.47,6.93,34.86,14.06,52.83,19.63,7.85,2.43,15.7,4.81,23.59,7.08,7.25,2.09,14.52,4.12,21.83,5.94,4.91,1.23,9.77,2.61,14.67,3.87,5.06,1.3,10.2,2.31,15.25,3.62,9,2.35,18.18,3.89,27.28,5.79,5,1,10.17,1.64,15.25,2.5,6,1,11.87,2.45,17.9,3.22,2.44.32,4.95.55,7.35,1.1a143.3,143.3,0,0,0,16.17,2.63c7.18.82,14.28,2.14,21.47,2.86,6.93.69,13.8,2,20.72,2.71q14.52,1.47,29.07,2.71c12.34,1,24.72,1.39,37,2.7,6.27.67,12.62.54,18.93.91,10.28.61,20.62,1.16,30.93,1.17C584.66,647.52,614.24,648.26,641.83,646.39ZM589.31,412.05a392.9,392.9,0,0,0,44-1.84c8.09-.8,16.21-1.31,24.31-2.09,8.63-.84,17.11-2.51,25.64-3.87,6.38-1,12.69-2.46,19-3.78,5.76-1.2,11.47-2.65,17.25-3.78,4.79-.93,9.4-2.73,14.15-3.91,11.86-2.95,23.45-6.77,35.08-10.45,9.76-3.08,19.2-7.06,28.71-10.87,15.08-6,29.68-13.11,44.23-20.32a4.41,4.41,0,0,0,2.58-3.43c1.82-11,3.23-22.09,3-33.25A249.67,249.67,0,0,0,844.66,282c-1.43-9.5-2.72-19-5.33-28.26-3-10.46-5.72-21-9.94-31.07a302.3,302.3,0,0,0-25.67-48.76c-5.37-8.23-11.68-15.76-17.94-23.34-10.28-12.45-22.08-23.33-34.55-33.5a239.15,239.15,0,0,0-34.62-23.18A261,261,0,0,0,668,72.58c-10-3.14-20.11-5.66-30.35-7.81a150.29,150.29,0,0,0-24.37-3.48c-11.68-.5-23.33-1.61-35.15-.55-11,1-22,1.28-32.86,3.3-6.62,1.23-13.3,2.22-19.83,3.83a253,253,0,0,0-33.2,10.76c-11.61,4.66-22.58,10.58-33.47,16.72a272.91,272.91,0,0,0-36.37,25c-11,8.8-20.7,19-29.86,29.75a299,299,0,0,0-18.41,23.61c-10.28,14.77-18.27,30.72-25,47.38a276.06,276.06,0,0,0-10.53,30.63,208.45,208.45,0,0,0-4.86,23.4,197.51,197.51,0,0,0-2.78,26.78c-.28,14.89-.57,29.8,2.44,44.53a6.61,6.61,0,0,0,3.48,5.07c11.62,6.19,23.66,11.47,35.77,16.59,11.49,4.85,23.09,9.44,34.83,13.64q14,5,28.28,9c10.41,2.87,20.77,5.86,31.36,8,6,1.23,12.1,2.26,18.1,3.68,4.57,1.08,9.34,1.32,13.92,2.36,6.09,1.38,12.28,2,18.44,2.79q12.74,1.63,25.54,2.78c7.54.67,15.09,1.15,22.63,1.62S580.56,412.05,589.31,412.05Z"/>
        <path class="cls-1 circles" d="M280.38,472.68c-.34,22.93-18.84,43.65-43.87,43.7-24.82,0-46.06-18.3-45.44-46.91.47-22.15,18.33-41.25,41.82-42.35C259.86,425.85,280.52,446.66,280.38,472.68Z"/>
        <path class="cls-1 circles a2" d="M589.57,515.5c24.17-.31,42.61,20,43.83,42.14,1.37,24.77-18.87,46.65-43.14,47-25.89.38-44.27-20.5-46-39.95A44.72,44.72,0,0,1,589.57,515.5Z"/>
        <path class="cls-1 circles a3" d="M941.52,427.05c25.54.35,46,19.77,45.13,47.24a43.89,43.89,0,0,1-44,42.09c-25.59.19-46.65-20.21-45.25-48C898.54,446.71,917.41,426.84,941.52,427.05Z"/>
      </g>
    </g>
  </g>
</svg>
