<?xml version="1.0" encoding="utf-8"?>
<!-- Generator: Adobe Illustrator 24.0.0, SVG Export Plug-In . SVG Version: 6.00 Build 0)  -->
<svg version="1.1" id="Capa_1" xmlns="http://www.w3.org/2000/svg" xmlns:xlink="http://www.w3.org/1999/xlink" x="0px" y="0px"
	 viewBox="0 0 272.9 147.4" style="enable-background:new 0 0 272.9 147.4;" xml:space="preserve">
<style type="text/css">
	.st0{fill:#8F50A9;}
	.st1{fill:#50478E;}
	.st2{fill:#FEFEFE;}
	.st3{
		fill:#FFFFFF;
    	animation: light 2s infinite ease-in-out;
	}
	@keyframes light {
		0%{
			fill: #ffffff;
		}
		50% {
			fill: #ffffff9c;
		}
		100% {
			fill: #ffffff;
		}
	}	
</style>
<title>platillo</title>
<g>
	<g>
		<path class="st0" d="M2.2,76.8C4,73,6.4,69.5,9.4,66.5c6.3-6.6,13.9-11.3,22.1-15.2c11.5-5.4,23.6-9.4,36-12c4.5-1,9-1.8,13.5-2.6
			c0.4-0.1,0.8-0.1,1.2-0.1c0.4,0.5,0.1,0.9-0.1,1.4c-1.7,4.4-2.7,9.1-3,13.8c-0.2,2,0.4,4.1,0,6.1c-0.2,0.8-0.2,1.6,0,2.4
			c0.1,0.3,0.1,0.7,0,1c-0.2,0.4,0.1,0,0.2,0.1c0.3,0.1,0.3,0.3,0.3,0.6c-0.1,0.4-0.2,0.9-0.1,1.3c0,0.1,0.1,0.2,0.1,0.3
			c0,0.4,0.1,0.7,0.3,1c0.1,0.2,0.2,0.5,0.2,0.7c0,0.6,0.1,1.2,0.3,1.8c0.2,0.8,0.7,1.5,1.4,1.9c5.3,3.9,11.2,7.3,17.5,10
			c8.8,3.8,18.1,6.3,27.6,7.5c6.4,0.8,12.9,1,19.3,0.7c12.1-0.6,23.9-3.4,35-8.2c4.4-2,8.7-4.3,12.7-7c0.9-0.5,1.6-1.3,1.9-2.3
			c0.2-0.6,0.4-1.2,0.4-1.8c0.1-0.7,0.2-1.3,0.4-2l0.3-2.3c0.1-0.8,0.3-2,0.4-3.4c0.3-3,0.4-6,0.1-8.9c0,0-0.1-1.2-0.4-3.5l-0.4-3
			c0.3,0.2,0.8,0.4,1.4,0.7c4.3,2,7.6,3.1,8.3,3.4c6.4,2.9,12.6,6.3,18.4,10.2c5.7,3.8,10.8,8.4,15,13.7c4.1,4.9,6.7,10.9,7.4,17.2
			c0.4,4.2-0.3,8.5-1.9,12.4c-1,2.6-2.4,5-4.1,7.3c-1.9,1.2-3.9,2.2-6,2.9c-11.2,4.5-22.7,7.9-34.5,10.1c-9,1.8-18,3.1-27.1,3.9
			c-4.2,0.4-8.3,0.6-12.5,0.9c-8.6,0.6-17.1,0.5-25.7,0.4c-5.1-0.1-10.2-0.4-15.2-0.8c-10.1-0.7-20.1-1.9-30-3.7
			c-12.4-2.1-24.5-5.2-36.4-9.2c-11.2-3.7-21.8-8.7-31.7-15.1C16.4,95.4,11.4,91,7.2,85.8c-1.6-2-3-4.3-4.2-6.6
			C2.7,78.5,2.4,77.7,2.2,76.8z"/>
		<path class="st0" d="M85.8,29.7c4.7-8.6,11.6-15.8,20-20.9c2.4-1.5,4.9-2.7,7.4-3.8l0.7-0.4c4.9-1.9,9.9-3.3,15.1-4
			c4.6-0.6,9.3-0.7,14-0.4c3,0.2,5.9,0.6,8.8,1.3c6.6,1.4,13,3.9,18.8,7.4c6.9,4.1,12.9,9.8,17.4,16.5c1.4,2.2,2.6,4.5,3.9,6.8
			c0.1,0.2,0.2,0.5,0.2,0.8c-0.1,0.4,0,0.9,0.3,1.3c1,2.1,1.5,4.4,2.3,6.6c0,0.1,0.1,0.2,0.1,0.3c0,0.6,0.1,1.2,0.4,1.8
			c0.2,0.3,0.2,0.6,0.1,0.9c0,0.7,0,1.5,0.2,2.2c0,0.1,0.1,0.2,0.1,0.3c0.1,0.5,0.1,1-0.1,1.4v0.1c0.1-0.1,0.2-0.1,0.3-0.1
			c0.7,1,0.4,2.2,0.3,3.3c-0.1,4-0.7,8-1.8,11.9c-0.3,1.1-1,2.1-2,2.7c-11.1,7.3-23.7,12.1-36.9,13.9c-5.3,0.8-10.7,1.2-16.1,1.1
			c-9.8-0.1-19.6-1.7-29-4.6c-9.5-2.9-18.4-7.4-26.4-13.4c-0.9-0.7-1.6-1.6-1.8-2.8c-1.1-4.8-1.4-9.7-1-14.5c0-0.3,0.1-0.6,0.2-0.8
			c0.5-1.3,0.5-2.7,0.9-4c0-0.2,0-0.4,0-0.7c0.3-0.6,0.5-1.2,0.5-1.8c0-0.2,0-0.3,0.1-0.5c0.4-0.8,0.8-1.7,1-2.6
			c0.5-1.5,1.3-2.9,1.8-4.3C85.8,30.5,85.9,30.1,85.8,29.7z"/>
		<path class="st0" d="M196.4,43.1c-0.4-1.1-0.8-2.3-1.1-3.4c4.1,1.1,8.3,2,12.5,3.2c13.8,3.8,27.1,8.8,39.4,16.2
			c6.1,3.5,11.6,7.9,16.4,13c3.3,3.4,5.8,7.4,7.6,11.8c-1.3,2.3-2.7,4.6-4.3,6.8c-2.2,2.9-4.8,5.5-7.7,7.7c0.6-1.7,1.3-4.9,0.8-8.8
			c-0.4-3.1-1.5-5.5-2.3-6.9c-2.2-3.8-5.9-9.3-11.7-14.9c-8.5-8.1-17.1-12-26.9-16.3c-6.8-3-13.7-5.5-20.9-7.6
			C197.6,43.8,197,43.5,196.4,43.1z"/>
	</g>
	<g>
		<path class="st1" d="M2.2,76.8c1,1.8,1.8,3.8,3,5.6c2.5,3.9,5.6,7.4,9.1,10.4c7,6.2,15.1,10.8,23.5,14.7c8.8,4,17.9,7.3,27.2,9.9
			c6.8,1.9,13.7,3.5,20.6,4.9c5.4,1,10.9,1.9,16.4,2.6s10.8,1.2,16.2,1.8c2.3,0.2,4.6,0.3,6.9,0.5c9.3,0.5,18.6,0.7,27.9,0.4
			c5.9-0.1,11.7-0.5,17.6-1c4.6-0.4,9.3-0.9,13.9-1.5c6.2-0.8,12.4-1.9,18.6-3.2c8.3-1.7,16.4-3.9,24.4-6.7c4.1-1.4,8.1-3,12.1-4.8
			c0.6-0.2,1.1-0.5,1.6-0.9c1.9-1.1,3.8-2.2,5.8-3.1c4.3-2.4,8.4-5.1,12.2-8.1c4.7-3.6,8.5-8.2,11.3-13.4c0.2-0.4,0.2-0.9,0.9-0.9
			c3.4,9.2,1.6,17.6-4,25.4c-4.8,6.6-11.2,11.4-18.2,15.5c-7.5,4.3-15.4,7.8-23.6,10.5c-0.1,0.1-0.2,0.4-0.4,0.2
			c-7.3,2.4-14.7,4.4-22.3,6c-7.9,1.6-15.9,2.9-23.9,3.8c-12.2,1.4-24.4,2.1-36.7,2h-1c-0.1,0.1-0.3,0.1-0.5,0l0,0
			c-5.8-0.1-11.5-0.3-17.3-0.6c-8.5-0.5-17-1.4-25.4-2.6c-12-1.7-23.9-4.2-35.6-7.6c-2.5-0.8-5-1.6-7.5-2.4
			c-0.3-0.2-0.7-0.2-1.1-0.2c-0.2,0-0.3,0.2-0.5,0c-0.1-0.5-0.6-0.5-1-0.6c-10.5-3.7-20.6-8.2-29.9-14.3
			c-6.7-4.6-12.9-9.7-17.4-16.6c-3.4-4.8-5.2-10.7-5-16.6C0.1,82.8,0.9,79.7,2.2,76.8z"/>
		<path class="st1" d="M81.6,44.7c-0.3,2.1-0.5,4.2-0.4,6.3c0.1,3.2,0.6,6.4,1.3,9.5c0.2,0.7,0.6,1.4,1.2,1.8
			c7,5.3,14.7,9.5,23,12.4c7,2.5,14.2,4.2,21.6,5c5.1,0.6,10.3,0.9,15.5,0.7c14.7-0.6,28.7-3.9,41.7-10.9c2.6-1.3,5-2.8,7.4-4.5
			c0.2-0.1,0.4-0.3,0.5-0.5s0.2-0.3,0.2-0.5c1.7-5.9,2.1-12.1,1.1-18.2c-0.3-1.8-1.8-9-2.7-12.1c-0.1-0.3-0.4-1.4-0.3-1.5
			s0.5,0.6,0.8,1.2c1,2,1.5,3.1,1.5,3.1c1.3,3.3,1.9,5,2.4,6.6c1.3,5.1,1.7,10.3,1.3,15.5c-0.3,3.8-0.9,7.5-1.9,11.2
			c-0.2,0.3-0.6,0.7-1.1,1.1c-4,4-9,6.2-20.1,10.2c-6.8,2.4-13.8,4-21,4.9c-6,0.8-12.1,1-18.2,0.7c-9.7-0.4-19.3-2.1-28.5-5.2
			c-9.3-3.1-18-7.6-25.9-13.6c-0.4-0.2-0.8-0.6-1-1.1c-0.1-0.2-0.2-0.4-0.2-0.8c-0.3-1-1.6-5.3-1.2-12.8c0.1-2.7,0.4-5.5,1-8.1
			c0.7-3.4,1.8-6.7,3.2-9.9c0.3-0.7,0.6-1.3,0.8-1.7c0,0,0.2-0.4,1.6-2.9c0.3-0.5,0.6-1.1,0.7-1s0,0.5-0.1,0.9
			c-0.5,1.1-1.2,2.7-1.9,4.7C82.8,38.3,82,41.4,81.6,44.7z"/>
		<path class="st1" d="M259.2,98.4c-5.2,4.2-11,7.8-17.1,10.7c-0.3,0.2-0.7,0.3-1.1,0.4c2.5-3.5,4.3-7.5,5.3-11.6
			c1.2-5.3,0.7-10.8-1.5-15.8c-2.7-6.6-7.2-11.8-12.5-16.5c-6.9-5.9-14.5-10.8-22.7-14.6c-4.2-2.1-8.4-3.9-12.8-5.5l-0.5-2.3
			c3.5,0.9,7,2,10.5,3.2c7.7,2.6,15.2,5.9,22.4,9.7c6,3.1,11.6,7,16.8,11.4c3.4,2.9,7.1,7,10.3,12.4c3.4,5.7,3.8,9.1,3.9,10.7
			C260.5,93.9,259.8,96.6,259.2,98.4z"/>
	</g>
	<g>
		<path class="st2" d="M80.2,66.7c1,1,2.1,1.9,3.3,2.7c11.4,7.9,24.3,13.2,38,15.5c7.8,1.4,15.8,1.9,23.8,1.5
			c17.9-0.9,34.5-5.6,49.4-15.7c0.4-0.2,0.8-0.6,1.1-1c0-0.1,0.1-0.1,0.2,0l0,0c-0.1,0.8-0.5,1.6-1.2,2c-7.7,5.2-16.1,9.2-25.1,11.8
			c-7.2,2.1-14.7,3.4-22.2,3.9c-12.6,0.9-25.2-0.5-37.3-4c-10.5-3-20.4-8-29.1-14.5c-0.7-0.4-1.2-1.2-1.1-2.1
			C80,66.6,80.1,66.6,80.2,66.7z"/>
		<path class="st2" d="M114.7,5.8c2.8-1.1,5.7-2,8.7-2.7c12.5-2.9,25.7-2,37.7,2.6c2.8,1.1,5.5,2.3,8.1,3.8c2.9,1.6,5.6,3.5,8.2,5.7
			c3.4,2.8,6.4,6.1,9,9.7c-3.2-3.8-6.8-7.2-10.8-10.1c-2.1-1.5-4.3-2.9-6.6-4.2c-0.6-0.3-2.1-1.1-3.9-2c-6.6-3-13.7-4.9-21-5.5
			c-10.1-1-20.2,0.4-29.7,4C106,10.4,98.3,15.5,92,21.9l2.9-3.1c2.8-2.9,5.9-5.4,9.3-7.6C107.5,9.1,111,7.3,114.7,5.8z"/>
	</g>
	<g>
		<path d="M52.5,107.4c-3.1,0.1-6.1-1.1-8.3-3.2c-0.6-0.5-0.9-1.4-0.6-2.1c0.7-3.2,3.7-5.2,7.3-4.8c3.3,0.2,6,2.7,6.6,5.9
			c0.2,1.1,0,2.2-0.5,3.2s-1.7,0.9-2.6,1.1C53.7,107.5,53.1,107.5,52.5,107.4z"/>
		<path d="M15.6,75.7c5.3,0,9,5.2,7.3,9.8c-0.4,0.9-0.9,1.7-1.7,2.2c-0.5,0.4-1.1,0.5-1.7,0.3c-4.2-1.1-7.5-4.3-8.6-8.4
			c-0.2-0.7-0.1-1.4,0.4-1.9C12.5,76.6,14,75.8,15.6,75.7z"/>
		<path d="M139.5,123.8c-2,0.1-3.9-0.4-5.7-1.3c-0.8-0.4-1.3-1.2-1.2-2.1c0-3.1,2.2-5.7,5.2-6.3c2.6-0.7,5.5,0.1,7.3,2.1
			c1.2,1.3,1.8,3,1.5,4.8c-0.1,0.6-0.5,1.1-1,1.3C143.7,123.3,141.6,123.9,139.5,123.8z"/>
		<path d="M223,112c-1.1,0-2.2-0.1-3.2-0.4c-1.5-0.4-2.4-1.8-2.2-3.4c0.3-3,2.5-5.4,5.4-6.1c2.8-0.8,5.9,0.2,7.7,2.5
			c0.7,0.9,1.1,2.1,1,3.3c0,0.5-0.3,0.9-0.6,1.1C228.8,111,225.9,112.1,223,112z"/>
		<path d="M178.2,121.7c-1.3-0.1-2.5-0.4-3.7-0.9c-0.8-0.3-1.4-1-1.3-1.9c-0.5-4.2,2.8-6.8,6-7.2c2.8-0.5,5.6,0.7,7.1,3.1
			c0.5,0.8,0.8,1.8,0.9,2.8c0.1,0.7-0.3,1.4-0.9,1.7C183.9,121,181,121.9,178.2,121.7z"/>
		<path d="M96,119.4c-2.7,0.1-5.3-0.7-7.4-2.3c-1.3-0.9-1.5-1.6-1-3.1c1.1-3.7,5.3-5.6,9.2-4.1c2,0.6,3.6,2.2,4.3,4.1
			c1.2,3.2-0.2,5.2-3.5,5.4C97.1,119.5,96.6,119.4,96,119.4z"/>
		<path d="M259.4,93.3c-1,0.5-2.1,0.8-3.2,1.1c-0.6,0.1-1.2,0-1.6-0.5c-2.5-2.3-2.5-6.4,0.2-9.2c0.8-0.9,1.8-1.5,2.9-2
			c2.1-0.9,4.6-0.6,6.4,0.8c1.4,1,1.7,2,1.1,3.6C264,89.7,262,92,259.4,93.3z"/>
	</g>
	<g>
		<path class="st3" d="M52.5,107.4c-3.1,0.1-6.1-1.1-8.3-3.2c-0.6-0.5-0.9-1.4-0.6-2.1c0.7-3.2,3.7-5.2,7.3-4.8
			c3.3,0.2,6,2.7,6.6,5.9c0.2,1.1,0,2.2-0.5,3.2s-1.7,0.9-2.6,1.1C53.7,107.5,53.1,107.5,52.5,107.4z"/>
		<path class="st3" d="M15.6,75.7c5.3,0,9,5.2,7.3,9.8c-0.4,0.9-0.9,1.7-1.7,2.2c-0.5,0.4-1.1,0.5-1.7,0.3c-4.2-1.1-7.5-4.3-8.6-8.4
			c-0.2-0.7-0.1-1.4,0.4-1.9C12.5,76.6,14,75.8,15.6,75.7z"/>
		<path class="st3" d="M139.5,123.8c-2,0.1-3.9-0.4-5.7-1.3c-0.8-0.4-1.3-1.2-1.2-2.1c0-3.1,2.2-5.7,5.2-6.3
			c2.6-0.7,5.5,0.1,7.3,2.1c1.2,1.3,1.8,3,1.5,4.8c-0.1,0.6-0.5,1.1-1,1.3C143.7,123.3,141.6,123.9,139.5,123.8z"/>
		<path class="st3" d="M223,112c-1.1,0-2.2-0.1-3.2-0.4c-1.5-0.4-2.4-1.8-2.2-3.4c0.3-3,2.5-5.4,5.4-6.1c2.8-0.8,5.9,0.2,7.7,2.5
			c0.7,0.9,1.1,2.1,1,3.3c0,0.5-0.3,0.9-0.6,1.1C228.8,111,225.9,112.1,223,112z"/>
		<path class="st3" d="M178.2,121.7c-1.3-0.1-2.5-0.4-3.7-0.9c-0.8-0.3-1.4-1-1.3-1.9c-0.5-4.2,2.8-6.8,6-7.2
			c2.8-0.5,5.6,0.7,7.1,3.1c0.5,0.8,0.8,1.8,0.9,2.8c0.1,0.7-0.3,1.4-0.9,1.7C183.9,121,181,121.9,178.2,121.7z"/>
		<path class="st3" d="M96,119.4c-2.7,0.1-5.3-0.7-7.4-2.3c-1.3-0.9-1.5-1.6-1-3.1c1.1-3.7,5.3-5.6,9.2-4.1c2,0.6,3.6,2.2,4.3,4.1
			c1.2,3.2-0.2,5.2-3.5,5.4C97.1,119.5,96.6,119.4,96,119.4z"/>
		<path class="st3" d="M259.4,93.3c-1,0.5-2.1,0.8-3.2,1.1c-0.6,0.1-1.2,0-1.6-0.5c-2.5-2.3-2.5-6.4,0.2-9.2c0.8-0.9,1.8-1.5,2.9-2
			c2.1-0.9,4.6-0.6,6.4,0.8c1.4,1,1.7,2,1.1,3.6C264,89.7,262,92,259.4,93.3z"/>
	</g>
</g>
</svg>
