<?xml version="1.0" encoding="utf-8"?>
<!-- Generator: Adobe Illustrator 24.0.0, SVG Export Plug-In . SVG Version: 6.00 Build 0)  -->
<svg version="1.1" id="Capa_1" xmlns="http://www.w3.org/2000/svg" xmlns:xlink="http://www.w3.org/1999/xlink" x="0px" y="0px"
	 viewBox="0 0 881.6 881.6" style="enable-background:new 0 0 881.6 881.6;" xml:space="preserve">
<title>rrss</title>
<style>
	g {
		fill: #121d35;
		transform-origin: center;
	}
	.circle_sm {
		animation: rotate_right 15s cubic-bezier(0, 0, 1, 1.01) infinite;
	}
	.circle_lg {
		animation: rotate_left 25s cubic-bezier(0, 0, 1, 1.01) infinite;
	}
	@keyframes rotate_right {
		0% {
			transform: rotate(0deg);
		}
		100% {
			transform: rotate(360deg);
		}
	}
	@keyframes rotate_left {
		0% {
			transform: rotate(360deg);
		}
		100% {
			transform: rotate(0deg);
		}
	}
</style>
<g class="circle_sm">
	<path d="M429.9,648.4c-14-0.9-27.8-3-41.4-6.2c-23.1-5.6-45-15.1-64.8-28.2c-12.4-8.1-23.9-17.5-34.4-28
		c-9.2-9.1-17.5-19.1-24.8-29.7c-8.7-12.8-16-26.4-21.8-40.8c-3.6-8.8-6.7-17.9-9.1-27.1c-2.4-9.9-4.2-20-5.2-30.2
		c-1.3-12.2-1.5-24.5-0.7-36.8c0.8-13.7,3-27.4,6.8-40.6c4-14.5,9.4-28.6,16.1-42.1c4-8.3,9.1-16.2,14.3-23.9
		c6.1-9,13-17.4,20.5-25.2c12.9-13.5,27.5-25.3,43.4-35.1c14.3-8.6,29.6-15.6,45.5-20.7c12.3-4.1,25-6.6,37.7-8.5
		c9.4-1.4,18.9-1.7,28.5-1.8c9.3,0,18.6,0.7,27.8,2.1c7.5,1.1,15,2.7,22.5,4.5c11.9,2.8,23.3,7.2,34.4,12.1
		c8.5,3.7,16.5,8.5,24.5,13.3c1.4,1,3.3,1.2,4.8,0.4c7.7-3.3,16-4.6,24.3-3.9c11.3,0.7,22,5.2,30.3,12.7
		c9.2,8.2,15.4,19.4,17.5,31.6c1.7,9.3,0.4,18.3-3.1,27c-1,2.4-1.1,4.5,0.3,6.9c6.8,11.6,12.4,23.8,16.8,36.4c2.9,8.2,5.2,16.5,7,25
		c2.3,11.2,3.8,22.7,4.3,34.1c0.7,12.1,0.6,24.2-1.5,36.3c-0.4,2.6-0.5,5.2-0.9,7.7c-2.6,16.2-7.2,32.1-13.5,47.3
		c-4.6,11.6-10.4,22.8-17.1,33.4c-4.9,7.6-10.3,14.9-16,21.9c-9.8,11.9-21.1,22.3-33.1,32c-15.7,12.1-33,21.9-51.3,29.2
		c-10.3,4-20.8,7.3-31.6,9.7c-7,1.5-14,2.9-21.1,3.8c-7.4,1-14.9,1.5-22.3,1.4C438.1,648.4,432.8,648.8,429.9,648.4z M609.1,446.3
		c-0.4-8.8,0-17.9-1.1-26.9c-1.3-10.5-2.9-20.9-6-31c-3-10.2-7-20.1-11.9-29.5c-1.6-2.9-2.5-3.5-4.9-2.8c-9.6,2.6-19,1.6-28.4-1.3
		c-10.6-3.3-19.8-10.1-26.3-19.1c-5.2-6.8-8.3-15-9.1-23.5c-0.8-6.7-0.3-13.6,1.5-20.1c0.6-2.1-0.2-2.9-1.9-3.9
		c-13-7.4-26.8-12.9-41.3-16.6c-11-2.8-22.2-4.5-33.6-5c-9.8-0.4-19.5,0.1-29.2,1.5c-11.6,1.7-23,4.5-34.1,8.4
		c-13.9,4.7-27.1,11.3-39.1,19.7c-14.2,9.7-26.8,21.5-37.4,35.1c-10,12.9-18.1,27.2-24.2,42.3c-3.7,8.7-6.5,17.8-8.3,27.1
		c-2.1,10.4-3.3,21-3.3,31.6c0.1,8.3,0.1,16.5,1.1,24.7c1.4,11.3,3.9,22.5,7.4,33.4c6.5,19.2,16.5,36.4,28.8,52.3
		c9,11.6,20,21.1,31.8,29.8c12.3,8.9,25.8,15.9,40,21c9.6,3.5,19.4,5.7,29.4,7.7c8.1,1.5,16.3,2.4,24.6,2.7
		c9.3,0.5,18.6,0.1,27.8-1.1c13.2-1.7,26.2-4.8,38.7-9.3c11.5-4,22.6-9.4,32.9-15.9c8.8-5.8,17.1-12.4,24.7-19.7
		c9.6-9.2,18-19.6,25-31c4.5-7.3,8.9-14.7,12.2-22.7c4.5-11.1,8.7-22.2,10.8-34.1C607,462.1,608.1,454.3,609.1,446.3z"/>
	<path d="M444,329.8c58.8,2.3,107.4,53.7,101.5,116.8c-5.2,54.7-52.6,98.4-110.2,95.8c-60.4-2.8-106-52.3-101.8-114.6
		C337.3,371.3,386.8,327,444,329.8z M442.6,372.8c-34.2-2-64.4,24.1-66.2,59.1c-1.9,36.1,23.4,65.3,60.8,67.3
		c34.4,1.8,62.4-24,65.3-56.9C505.9,405.1,478.5,374.7,442.6,372.8L442.6,372.8z"/>
</g>
<g class="circle_lg">
	<path d="M436.4,795.3c-10.1,0.4-20.2,0-30.2-1.1c-10.3-1.1-20.6-2.7-30.9-4.5c-8.2-1.5-16.3-3.2-24.4-5.1c-11.1-2.7-22-6.1-32.7-10
		c-17.8-6.5-35-14.3-51.6-23.4c-14.9-8.1-29.2-17.3-42.8-27.6c-11.7-8.9-22.9-18.5-33.5-28.7c-17.1-16.4-32.5-34.4-46-53.9
		c-14.9-21.5-27.4-44.6-37.5-68.8c-5.5-13.2-10.1-26.8-13.9-40.6c-4.1-14.9-7.1-30.1-9.1-45.5c-1.5-10.2-2.4-20.5-2.8-30.8
		c-0.2-8.1-0.7-16.1-0.7-24.2c0-8.5,0.8-17.1,1.6-25.6c0.6-7.5,1.2-15.1,2.4-22.6c2.1-12.8,4.7-25.5,8-38.1c4-15.3,9.4-30,14.9-44.8
		c3.8-9.8,8.2-19.5,13.2-28.8c4.8-9.4,10.3-18.4,15.9-27.4c0.7-1,0.7-2.4,0-3.5c-4.9-8.2-8.2-17.2-9.8-26.5
		c-1.4-7-1.7-14.2-0.8-21.4c1.2-10.8,4.4-21.2,9.3-30.9c4.6-8.7,11-16,18.4-22.5c8.9-7.8,19.3-12.8,30.4-16.1
		c5.6-1.6,11.4-2.6,17.2-2.9c9.7-0.4,19.5,0.9,28.7,3.8c9.3,2.8,17.5,7.7,25.1,13.6c7.8,6.2,14.3,13.8,19.2,22.5
		c4.6,7.8,7.8,16.4,9.4,25.3c1.4,8,1.7,16.2,0.7,24.3c-1,7.9-3.2,15.5-6.5,22.7c-8.9,19.4-23.4,33.2-43.1,41.3
		c-9.9,4.2-20.6,6.2-31.4,6c-9.5-0.3-18.9-2.3-27.7-5.8c-1.8-0.7-2.7-0.3-3.7,1.2c-5.6,8.8-10.6,18-15.1,27.5
		c-4.6,9.4-8.7,19.1-12.3,29c-4.5,12.5-8.2,25.3-11.2,38.3c-2.1,8.9-3.7,17.9-4.7,27c-0.7,6.5-1.4,13-1.9,19.6
		c-0.5,7.8-1,15.6-0.8,23.5c0.2,11.1,1,22.3,2.3,33.4c1.5,12.7,3.9,25.3,7,37.7c4.5,18.1,10.1,35.9,18,52.9
		c4.7,10.1,9.9,20,15.3,29.7c4.6,8.2,9.6,16.2,15.2,23.8c5.2,7,10.3,14.1,16.1,20.7c5.8,6.6,11.6,13.1,17.7,19.4
		c4.6,4.8,9.6,9.2,14.6,13.7c9.5,8.4,19.6,16.3,30.1,23.5c10.5,7.2,21.5,13.7,32.8,19.6c17.5,9.4,35.9,16.9,55,22.4
		c12.4,3.7,25.1,6.6,37.9,8.8c13.9,2.4,27.8,3.8,41.9,4.3c10.7,0.3,21.4-0.2,32.1-0.8c9.2-0.5,18.2-1.6,27.3-2.8
		c9.1-1.3,18.2-3.1,27.1-5.5c10.4-2.7,20.6-6,30.8-9.5c5-1.8,9.9-3.8,14.8-6c0.8-0.5,1.8-0.6,2.7-0.4c0.9,0.4,1.5,1.1,1.9,2
		c3,6.2,6.5,12.1,10.3,17.8c2.8,3.8,10.7,13.1,13.1,15.2c0.2,0.2,1.1,1,1,1.7c-0.1,0.4-0.6,0.8-1.5,1.2c-6.6,3.4-13.6,5.8-20.5,8.5
		c-13.1,5.1-26.5,9.4-40.1,13c-10.5,2.9-21.2,4.8-32,6.7c-13.5,2.4-27.2,3.3-40.9,4C449.2,795.3,442.8,795.2,436.4,795.3z
		 M171.2,200.6c-0.7,18.2,14.8,33.3,32.9,33.3s33.5-15.3,33.4-33.3c0.2-18.2-14.5-33-32.6-33.2c-0.2,0-0.5,0-0.7,0
		C186,167.4,170.5,182.5,171.2,200.6z"/>
	<path d="M753.7,435.5c0.5-12.1,0-24.3-1.7-36.4c-1.3-10.5-3.1-20.9-5.5-31.2c-2.5-10.4-4.9-20.7-8.2-30.9
		c-11.6-34.5-29-66.7-51.3-95.4c-9-11.8-19.4-22.4-30-32.8c-12.1-12-25.5-22.4-39.4-32.2c-12.1-8.5-25-15.5-38.2-22.1
		c-14.9-7.5-30.4-13.7-46.3-18.6c-10.2-3.1-20.5-5.6-31-7.7c-9.7-1.9-19.5-3.3-29.3-4.6c-4.5-0.6-9.1-0.8-13.7-1.2
		c-6.4-0.5-12.8-0.7-19.2-0.6c-11.3,0.3-22.6,0.8-33.8,2.2c-8,1-16,1.7-24,3.3c-10.5,2-21,4.7-31.2,7.9c-12.1,3.7-24,8.1-35.6,13.1
		c-1.8,0.8-2.7-0.1-3.5-1.7c-4-8-8.3-15.8-13.9-22.8c-2.8-3.4-5.7-6.7-8.7-9.9c-2.3-2.4-2.3-2.8,0.8-4.2c5.7-2.5,11.4-5,17.2-7.3
		c12.3-4.7,24.6-9.3,37.4-12.6c10.5-2.8,21-5.6,31.8-7.4c13.4-2.2,26.8-3.9,40.3-4.9c11.3-0.9,22.7-1.1,34-0.8
		c12.9,0.5,25.8,1.4,38.5,3.2c14.3,2.1,28.5,4.9,42.6,8.4c19.5,4.9,38.5,11.7,56.8,20.3c37.5,17.1,71.8,40.5,101.4,69.2
		c14.1,14,27.6,28.5,39.2,44.5c15.2,20.9,28.5,42.9,38.8,66.5c3.6,8.3,7.4,16.6,10.3,25.2c4.3,12.3,7.9,24.7,10.9,37.3
		c2.4,10.6,4.7,21.3,6.2,32.1c1.5,9.6,2.5,19.3,3,29c0.3,8,1.1,16,0.8,24c-0.4,12.6-0.8,25.3-2.3,37.9c-0.6,4.9-0.8,9.8-1.7,14.6
		c-1.4,7.9-2.8,15.7-4.4,23.5c-2.3,11-5.7,21.7-8.9,32.5c-2.4,8-5.4,15.8-8.3,23.5c-7.8,19.9-17.5,39.1-29,57.1
		c-1.8,2.8-1.9,5-0.2,8c4.7,8.3,8.1,17,9.1,26.7c0.4,3.8,0.7,7.6,0.8,11.4c0.3,14.6-3.6,28.2-10.9,40.7
		c-8.5,14.6-20.6,25.2-36.1,32.2c-7.8,3.5-16.2,5.8-24.7,6.8c-6.8,0.8-13.7,0.5-20.4-0.7c-10.8-1.8-21.1-5.8-30.3-11.7
		c-15.6-10.1-27.2-25.4-32.8-43.1c-3.3-10.2-4.3-20.9-3.1-31.5c1.3-12.5,5.5-24.4,12.2-35c7.4-11.8,17.8-21.4,30.3-27.7
		c13.3-6.8,27.7-10.2,42.8-8.8c8,0.7,16,2.2,23.4,5.7c1.2,0.8,2.7,0.5,3.5-0.7c0.1-0.1,0.2-0.3,0.2-0.4
		c6.9-11.3,13.3-22.9,18.3-35.2c2.6-6.5,5.5-12.9,7.9-19.4c4.6-12.5,8.5-25.2,11.5-38.2c2.1-9,3.7-18.1,4.8-27.3
		C752.8,463.5,754.4,449.4,753.7,435.5z M708.7,672.2c0.3-19.5-15-33.5-33.1-33.8c-17.9-0.3-33.5,15.3-33.3,33.3
		c0.2,18.9,13.8,33.4,33.5,33.4c18.1,0.1,32.9-14.5,32.9-32.6C708.7,672.4,708.7,672.3,708.7,672.2z"/>
</g>
</svg>
